<svg xmlns="http://www.w3.org/2000/svg" xmlns:xlink="http://www.w3.org/1999/xlink" width="1366" zoomAndPan="magnify" viewBox="0 0 1024.5 576" height="768" preserveAspectRatio="xMidYMid meet" version="1.0"><defs><clipPath id="6bac0e0230"><path d="M 72.121094 63.402344 L 408.433594 63.402344 L 408.433594 393.546875 L 72.121094 393.546875 Z M 72.121094 63.402344 " clip-rule="nonzero"/></clipPath></defs><g clip-path="url(#6bac0e0230)"><path fill="#000000" d="M 215.136719 104.035156 C 214.160156 95.3125 215.332031 86.195312 219.878906 78.507812 C 224.429688 70.820312 232.65625 64.761719 242.050781 63.675781 C 259.210938 61.691406 274.765625 78.375 272.628906 94.269531 C 271.375 103.605469 265.546875 111.765625 260.847656 120.101562 C 256.152344 128.441406 252.425781 138.207031 255.6875 147.113281 C 258.5 154.8125 266.734375 160.53125 275.503906 160.882812 C 284.269531 161.234375 293.003906 156.191406 296.523438 148.746094 C 301.148438 138.972656 297.035156 127.082031 301.691406 117.324219 C 308.035156 104.042969 330.425781 101.769531 341.066406 112.4375 C 351.707031 123.105469 349.035156 141.925781 336.9375 151.164062 C 330.835938 155.824219 323.09375 158.277344 316.746094 162.644531 C 310.394531 167.011719 305.367188 174.683594 308.292969 181.492188 C 311.304688 188.507812 321.21875 190.765625 329.179688 189.140625 C 337.140625 187.515625 344.117188 183.152344 351.808594 180.644531 C 358.027344 178.617188 366.03125 178.277344 370.125 183.0625 C 375.210938 189.003906 369.84375 198.394531 362.273438 201.277344 C 354.699219 204.160156 346.148438 202.820312 337.972656 202.40625 C 329.792969 201.992188 320.523438 203.039062 315.480469 209.011719 C 310.058594 215.429688 312.121094 225.417969 318.265625 231.242188 C 324.414062 237.066406 333.527344 239.382812 342.304688 239.882812 C 351.082031 240.378906 359.882812 239.3125 368.675781 239.53125 C 380.789062 239.832031 393.550781 243.019531 401.601562 251.402344 C 409.65625 259.785156 410.851562 274.273438 401.742188 281.671875 C 393.964844 287.984375 381.808594 287.167969 372.511719 282.960938 C 363.21875 278.753906 355.769531 271.804688 347.429688 266.132812 C 341.472656 262.082031 334.097656 258.527344 326.953125 260.304688 C 319.8125 262.082031 315.535156 271.878906 321.425781 276.015625 C 324.175781 277.949219 327.972656 277.960938 331.066406 279.378906 C 336.324219 281.789062 338.480469 288.664062 335.433594 293.308594 C 332.386719 297.957031 324.8125 299.355469 320.074219 296.144531 C 316.25 293.554688 314.398438 288.699219 310.03125 287.007812 C 303.929688 284.636719 296.9375 291.046875 297.804688 297.121094 C 298.667969 303.195312 304.992188 307.589844 311.492188 308.75 C 316.65625 309.671875 322.800781 309.328125 326.164062 313.074219 C 338.273438 326.542969 301.921875 338.15625 296.128906 324.664062 C 294.25 320.28125 292.195312 315.78125 288.46875 312.5625 C 284.746094 309.347656 278.878906 307.769531 274.449219 310.101562 C 268.648438 313.160156 268.300781 321.15625 271.449219 326.609375 C 274.597656 332.0625 280.132812 335.917969 284.527344 340.574219 C 295.566406 352.265625 298.488281 371.238281 287.996094 383.355469 C 277.703125 395.242188 256.875 396.753906 243.511719 387.871094 C 230.144531 378.984375 224.78125 361.78125 228.976562 347.046875 C 230.519531 341.632812 233.214844 336.3125 232.816406 330.722656 C 232.367188 324.421875 227.570312 318.570312 221.140625 316.472656 C 214.710938 314.378906 207.015625 316.15625 202.402344 320.804688 C 196.925781 326.324219 195.640625 335.199219 188.714844 339.078125 C 182.441406 342.59375 173.289062 339.757812 170.023438 333.675781 C 166.757812 327.59375 169.398438 319.535156 175.417969 315.65625 C 179.144531 313.253906 184.183594 311.988281 186.125 308.1875 C 188.121094 304.28125 185.492188 299.359375 181.40625 297.269531 C 177.328125 295.183594 172.324219 295.355469 167.769531 296.269531 C 155.222656 298.789062 144.636719 306.261719 134.125 313.078125 C 123.613281 319.898438 112.011719 326.46875 99.183594 326.730469 C 86.351562 326.996094 72.480469 318.460938 72.253906 306.578125 C 72.074219 297.144531 80.539062 289 90.210938 286.042969 C 99.882812 283.089844 110.433594 284.285156 120.398438 286.230469 C 129.167969 287.941406 138.289062 290.207031 146.9375 288.03125 C 155.585938 285.855469 163.066406 277.140625 159.691406 269.453125 C 156.039062 261.144531 143.808594 260.316406 134.191406 261.390625 C 124.578125 262.460938 112.886719 263.3125 107.191406 256.054688 C 103.390625 251.207031 104.167969 244.050781 108.144531 239.316406 C 112.117188 234.585938 118.691406 232.144531 125.160156 231.890625 C 132.539062 231.597656 139.933594 233.863281 147.234375 232.847656 C 154.539062 231.832031 161.910156 225.15625 159.054688 218.847656 C 157.046875 214.40625 151.136719 212.730469 145.9375 212.664062 C 140.738281 212.59375 135.390625 213.554688 130.425781 212.128906 C 123.304688 210.074219 118.488281 202.710938 119.820312 195.917969 C 121.152344 189.121094 128.460938 183.800781 135.902344 184.195312 C 145.152344 184.691406 154.785156 192.570312 162.476562 187.789062 C 169.613281 183.355469 166.09375 172.328125 159.027344 167.804688 C 151.957031 163.28125 142.875 162.34375 135.398438 158.425781 C 125.796875 153.402344 119.523438 143.070312 120.59375 132.90625 C 121.664062 122.738281 130.4375 113.5 141.324219 111.847656 C 154.554688 109.835938 166.378906 119.082031 167.730469 131.046875 C 168.921875 141.597656 163.941406 152.546875 173.25 161 C 186.890625 173.390625 211.605469 166.21875 218.628906 150.972656 C 225.632812 135.769531 216.851562 119.335938 215.136719 104.035156 " fill-opacity="1" fill-rule="nonzero"/></g><path fill="#000000" d="M 129.625 373.703125 C 130.09375 389.996094 162.78125 387.625 157.890625 367.296875 C 156.546875 361.710938 152.804688 355.863281 146.421875 354.441406 C 132.890625 351.421875 129.351562 364.25 129.625 373.703125 " fill-opacity="1" fill-rule="nonzero"/><path fill="#000000" d="M 295.050781 65.039062 C 286.976562 69.707031 280.335938 83.917969 287.628906 91.199219 C 296.757812 100.316406 305.847656 88.667969 308.035156 80.394531 C 309.15625 76.152344 309.398438 71.410156 306.953125 67.675781 C 303.746094 62.765625 299.210938 62.636719 295.050781 65.039062 " fill-opacity="1" fill-rule="nonzero"/><path fill="#000000" d="M 408.769531 207.40625 C 400.5 203.042969 383.84375 204.371094 380.382812 213.769531 C 376.054688 225.539062 391.441406 227.425781 400.339844 225.277344 C 404.902344 224.179688 409.527344 222.125 411.917969 218.359375 C 415.058594 213.414062 413.027344 209.65625 408.769531 207.40625 " fill-opacity="1" fill-rule="nonzero"/><path fill="#000000" d="M 365.105469 300.546875 C 365.152344 297.640625 363.015625 294.703125 357.578125 293.601562 C 349.78125 292.019531 342.402344 298.722656 349.476562 304.582031 C 357.460938 311.191406 365.015625 305.921875 365.105469 300.546875 " fill-opacity="1" fill-rule="nonzero"/><path fill="#000000" d="M 86.171875 189.546875 C 74.746094 184.628906 57.671875 188.492188 59.355469 201.882812 C 61.625 218.425781 80.699219 217.035156 89.246094 212.648438 C 93.515625 210.558594 97.082031 207.441406 96.964844 202.679688 C 96.792969 196.449219 92.09375 192.023438 86.171875 189.546875 " fill-opacity="1" fill-rule="nonzero"/><path fill="#000000" d="M 366.285156 86.242188 C 367.550781 88 368.402344 89.851562 368.558594 91.46875 C 369.460938 100.699219 355.570312 101.417969 350.621094 95.589844 C 342.25 85.734375 357.300781 73.75 366.285156 86.242188 " fill-opacity="1" fill-rule="nonzero"/><path fill="#000000" d="M 182.140625 76.496094 C 182.289062 81.496094 180.335938 86.523438 175.914062 90.058594 C 166.839844 97.320312 151.867188 95.5 145.183594 86.214844 C 137.054688 74.925781 146.402344 59.355469 160.726562 58.4375 C 171.851562 57.71875 181.84375 66.3125 182.140625 76.496094 " fill-opacity="1" fill-rule="nonzero"/></svg>